<svg xmlns="http://www.w3.org/2000/svg" viewBox="0 0 460.26 460.26"><defs><style>.cls-1{fill:#e2e2e2;}.cls-1,.cls-2{stroke:#312a20;}.cls-1,.cls-2,.cls-3,.cls-4{stroke-miterlimit:10;}.cls-1,.cls-3,.cls-4{stroke-width:14px;}.cls-2{fill:#201600;stroke-width:23px;}.cls-3{fill:#6ca9e0;}.cls-3,.cls-4{stroke:#fff;}.cls-4{fill:#fff;}.cls-5{fill:#4d59a1;}</style></defs><g id="BackgroundCircle"><circle class="cls-1" cx="230.13" cy="230.13" r="223.13"/></g><g id="Table"><rect class="cls-2" x="152.45" y="110.77" width="272.36" height="342.22" rx="53.84" transform="translate(512.01 -59.21) rotate(90)"/><rect class="cls-3" x="69.02" y="103.24" width="322.22" height="252.36" rx="43.84"/><line class="cls-4" x1="67.95" y1="189.5" x2="390.17" y2="189.5"/><line class="cls-4" x1="67.95" y1="246.52" x2="390.17" y2="246.52"/><line class="cls-4" x1="68.66" y1="301.42" x2="390.88" y2="301.42"/><line class="cls-4" x1="151" y1="103.95" x2="151" y2="356.31"/><line class="cls-4" x1="229.42" y1="103.95" x2="229.42" y2="356.31"/><line class="cls-4" x1="309.26" y1="107.87" x2="309.26" y2="360.23"/><path class="cls-5" d="M113.81,109.3H346.45a37.78,37.78,0,0,1,37.78,37.78v0a0,0,0,0,1,0,0H76a0,0,0,0,1,0,0v0a37.78,37.78,0,0,1,37.78-37.78Z"/></g></svg>